{
	"asset": {
		"generator": "Blocks",
		"version": "1.0.4",
		"copyright": "Unknown"
	},
	"buffers": {
		"model": {
			"byteLength": 667676,
			"type": "arraybuffer",
			"uri": "model.bin"
		}
	},
	"accessors": {
		"accessor_position_m0-PolyGlass24_-99720": {
			"bufferView": "vec3BufferView",
			"byteOffset": 0,
			"byteStride": 12,
			"componentType": 5126,
			"count": 108,
			"max": [ -0.5057564, 1.791571, -0.3982797 ],
			"min": [ -0.545275, 1.732354, -0.5614718 ],
			"type": "VEC3"
		 },
		"accessor_normal_m0-PolyGlass24_-99720": {
			"bufferView": "vec3BufferView",
			"byteOffset": 1296,
			"byteStride": 12,
			"componentType": 5126,
			"count": 108,
			"max": [ 0.9987591, 0.9998769, 0.9861887 ],
			"min": [ -0.998759, -0.9612937, -0.9807411 ],
			"type": "VEC3"
		 },
		"accessor_color_m0-PolyGlass24_-99720": {
			"bufferView": "vec4BufferView",
			"byteOffset": 0,
			"byteStride": 16,
			"componentType": 5126,
			"count": 108,
			"max": [ 0.8392157, 0.8392157, 0.8392157, 0.2509804 ],
			"min": [ 0.8392157, 0.8392157, 0.8392157, 0.2509804 ],
			"type": "VEC4"
		 },
		"accessor_indices_0_m0-PolyGlass24_-99720": {
			"bufferView": "ushortBufferView",
			"byteOffset": 0,
			"byteStride": 0,
			"componentType": 5123,
			"count": 192,
			"max": [ 107 ],
			"min": [ 0 ],
			"type": "SCALAR"
		 },
		"accessor_position_m1-PolyPaper8_-158232": {
			"bufferView": "vec3BufferView",
			"byteOffset": 2592,
			"byteStride": 12,
			"componentType": 5126,
			"count": 5610,
			"max": [ -0.3185261, 1.881679, -0.2035468 ],
			"min": [ -0.7481048, 0.7648368, -0.9510359 ],
			"type": "VEC3"
		 },
		"accessor_normal_m1-PolyPaper8_-158232": {
			"bufferView": "vec3BufferView",
			"byteOffset": 69912,
			"byteStride": 12,
			"componentType": 5126,
			"count": 5610,
			"max": [ 0.9998597, 0.9995072, 0.9995768 ],
			"min": [ -0.9987614, -0.9995072, -0.9985806 ],
			"type": "VEC3"
		 },
		"accessor_color_m1-PolyPaper8_-158232": {
			"bufferView": "vec4BufferView",
			"byteOffset": 1728,
			"byteStride": 16,
			"componentType": 5126,
			"count": 5610,
			"max": [ 0.9568627, 0.6862745, 0.8980392, 1 ],
			"min": [ 0.01176471, 0.1019608, 0.1019608, 1 ],
			"type": "VEC4"
		 },
		"accessor_indices_0_m1-PolyPaper8_-158232": {
			"bufferView": "ushortBufferView",
			"byteOffset": 384,
			"byteStride": 0,
			"componentType": 5123,
			"count": 8550,
			"max": [ 5609 ],
			"min": [ 0 ],
			"type": "SCALAR"
		 },
		"accessor_position_m2-PolyPaper23_-158026": {
			"bufferView": "vec3BufferView",
			"byteOffset": 137232,
			"byteStride": 12,
			"componentType": 5126,
			"count": 9788,
			"max": [ -0.1928813, 1.833986, -0.1621328 ],
			"min": [ -0.7413799, 0.7683544, -0.9517645 ],
			"type": "VEC3"
		 },
		"accessor_normal_m2-PolyPaper23_-158026": {
			"bufferView": "vec3BufferView",
			"byteOffset": 254688,
			"byteStride": 12,
			"componentType": 5126,
			"count": 9788,
			"max": [ 0.9998891, 1, 0.9987053 ],
			"min": [ -0.9999855, -1, -0.9987052 ],
			"type": "VEC3"
		 },
		"accessor_color_m2-PolyPaper23_-158026": {
			"bufferView": "vec4BufferView",
			"byteOffset": 91488,
			"byteStride": 16,
			"componentType": 5126,
			"count": 9788,
			"max": [ 1, 0.9215686, 0.8980392, 1 ],
			"min": [ 0.01176471, 0.1019608, 0, 1 ],
			"type": "VEC4"
		 },
		"accessor_indices_0_m2-PolyPaper23_-158026": {
			"bufferView": "ushortBufferView",
			"byteOffset": 17484,
			"byteStride": 0,
			"componentType": 5123,
			"count": 14976,
			"max": [ 9787 ],
			"min": [ 0 ],
			"type": "SCALAR"
		 }
	},
	"bufferViews": {
		"ushortBufferView": {
			"buffer": "model",
			"byteLength": 47436,
			"byteOffset": 0,
			"target": 34963
		},
		"vec3BufferView": {
			"buffer": "model",
			"byteLength": 372144,
			"byteOffset": 47436,
			"target": 34962
		},
		"vec4BufferView": {
			"buffer": "model",
			"byteLength": 248096,
			"byteOffset": 419580,
			"target": 34962
		}
	},
	"meshes": {
		"mesh_m0-PolyGlass24_-99720": {
			"name": "mesh_m0-PolyGlass24_-99720",
			"primitives": [
				{
					"attributes": {
						"POSITION": "accessor_position_m0-PolyGlass24_-99720",
						"NORMAL": "accessor_normal_m0-PolyGlass24_-99720",
						"COLOR": "accessor_color_m0-PolyGlass24_-99720"
					},
					"indices": "accessor_indices_0_m0-PolyGlass24_-99720",
					"material": "material_mat24",
					"mode": 4
				}
			]
		},
		"mesh_m1-PolyPaper8_-158232": {
			"name": "mesh_m1-PolyPaper8_-158232",
			"primitives": [
				{
					"attributes": {
						"POSITION": "accessor_position_m1-PolyPaper8_-158232",
						"NORMAL": "accessor_normal_m1-PolyPaper8_-158232",
						"COLOR": "accessor_color_m1-PolyPaper8_-158232"
					},
					"indices": "accessor_indices_0_m1-PolyPaper8_-158232",
					"material": "material_mat8",
					"mode": 4
				}
			]
		},
		"mesh_m2-PolyPaper23_-158026": {
			"name": "mesh_m2-PolyPaper23_-158026",
			"primitives": [
				{
					"attributes": {
						"POSITION": "accessor_position_m2-PolyPaper23_-158026",
						"NORMAL": "accessor_normal_m2-PolyPaper23_-158026",
						"COLOR": "accessor_color_m2-PolyPaper23_-158026"
					},
					"indices": "accessor_indices_0_m2-PolyPaper23_-158026",
					"material": "material_mat23",
					"mode": 4
				}
			]
		}
	},
	"shaders": {
		"vertex_mat24": {
			"type": 35633,
			"uri": "https://vr.google.com/shaders/w/glassVS.glsl"
		},
		"fragment_mat24": {
			"type": 35632,
			"uri": "https://vr.google.com/shaders/w/glassFS.glsl"
		},
		"vertex_mat8": {
			"type": 35633,
			"uri": "https://vr.google.com/shaders/w/vs.glsl"
		},
		"fragment_mat8": {
			"type": 35632,
			"uri": "https://vr.google.com/shaders/w/fs.glsl"
		},
		"vertex_mat23": {
			"type": 35633,
			"uri": "https://vr.google.com/shaders/w/vs.glsl"
		},
		"fragment_mat23": {
			"type": 35632,
			"uri": "https://vr.google.com/shaders/w/fs.glsl"
		}
	},
	"programs": {
		"program_mat24": {
			"attributes": [
				"a_position",
				"a_normal",
				"a_color"				
			],
			"vertexShader": "vertex_mat24",
			"fragmentShader": "fragment_mat24"
		},
		"program_mat8": {
			"attributes": [
				"a_position",
				"a_normal",
				"a_color"				
			],
			"vertexShader": "vertex_mat8",
			"fragmentShader": "fragment_mat8"
		},
		"program_mat23": {
			"attributes": [
				"a_position",
				"a_normal",
				"a_color"				
			],
			"vertexShader": "vertex_mat23",
			"fragmentShader": "fragment_mat23"
		}
	},
	"techniques": {
		"technique_mat24": {
			"program": "program_mat24",
			"extras": {"gvrss" : "https://vr.google.com/shaders/w/gvrss/glass.json"},
			"parameters": {
				"position": {
					"type": 35665,
					"semantic": "POSITION"
				},
				"normal": {
					"type": 35665,
					"semantic": "NORMAL"
				},
				"color": {
					"type": 35666,
					"semantic": "COLOR"
				},
				"modelViewMatrix": {
					"type": 35676,
					"semantic": "MODELVIEW"
				},
				"projectionMatrix": {
					"type": 35676,
					"semantic": "PROJECTION"
				},
				"normalMatrix": {
					"type": 35675,
					"semantic": "MODELVIEWINVERSETRANSPOSE"
				},
				"color": {
					"type": 35666
				},
				"roughness": {
					"type": 5126
				},
				"metallic": {
					"type": 5126
				},
				"light0Pos": {
					"type": 35666
				},
				"light0Color": {
					"type": 35666
				},
				"light1Pos": {
					"type": 35666
				},
				"light1Color": {
					"type": 35666
				}				
			},
			"attributes": {
				"a_position": "position",
				"a_normal": "normal",
				"a_color": "color"				
			},
			"uniforms": {
				"u_modelViewMatrix": "modelViewMatrix",
				"u_projectionMatrix": "projectionMatrix",
				"u_normalMatrix": "normalMatrix",
				"u_color": "color",
				"u_roughness": "roughness",
				"u_metallic": "metallic",
				"u_light0Pos": "light0Pos",
				"u_light0Color": "light0Color",
				"u_light1Pos": "light1Pos",
				"u_light1Color": "light1Color"				
			},
			"states": {
				"enable": [
					2929,
					3042
				],
				"functions": {
					"blendFuncSeparate": [775, 774, 773, 772],
					"depthMask": [true]
				}
			}
		},
		"technique_mat8": {
			"program": "program_mat8",
			"extras": {"gvrss" : "https://vr.google.com/shaders/w/gvrss/paper.json"},
			"parameters": {
				"position": {
					"type": 35665,
					"semantic": "POSITION"
				},
				"normal": {
					"type": 35665,
					"semantic": "NORMAL"
				},
				"color": {
					"type": 35666,
					"semantic": "COLOR"
				},
				"modelViewMatrix": {
					"type": 35676,
					"semantic": "MODELVIEW"
				},
				"projectionMatrix": {
					"type": 35676,
					"semantic": "PROJECTION"
				},
				"normalMatrix": {
					"type": 35675,
					"semantic": "MODELVIEWINVERSETRANSPOSE"
				},
				"color": {
					"type": 35666
				},
				"roughness": {
					"type": 5126
				},
				"metallic": {
					"type": 5126
				},
				"light0Pos": {
					"type": 35666
				},
				"light0Color": {
					"type": 35666
				},
				"light1Pos": {
					"type": 35666
				},
				"light1Color": {
					"type": 35666
				}				
			},
			"attributes": {
				"a_position": "position",
				"a_normal": "normal",
				"a_color": "color"				
			},
			"uniforms": {
				"u_modelViewMatrix": "modelViewMatrix",
				"u_projectionMatrix": "projectionMatrix",
				"u_normalMatrix": "normalMatrix",
				"u_color": "color",
				"u_roughness": "roughness",
				"u_metallic": "metallic",
				"u_light0Pos": "light0Pos",
				"u_light0Color": "light0Color",
				"u_light1Pos": "light1Pos",
				"u_light1Color": "light1Color"				
			},
			"states": {
				"enable": [
					2929,
					2884
				],
				"functions": {
					"cullFace": [1029]
				}
			}
		},
		"technique_mat23": {
			"program": "program_mat23",
			"extras": {"gvrss" : "https://vr.google.com/shaders/w/gvrss/paper.json"},
			"parameters": {
				"position": {
					"type": 35665,
					"semantic": "POSITION"
				},
				"normal": {
					"type": 35665,
					"semantic": "NORMAL"
				},
				"color": {
					"type": 35666,
					"semantic": "COLOR"
				},
				"modelViewMatrix": {
					"type": 35676,
					"semantic": "MODELVIEW"
				},
				"projectionMatrix": {
					"type": 35676,
					"semantic": "PROJECTION"
				},
				"normalMatrix": {
					"type": 35675,
					"semantic": "MODELVIEWINVERSETRANSPOSE"
				},
				"color": {
					"type": 35666
				},
				"roughness": {
					"type": 5126
				},
				"metallic": {
					"type": 5126
				},
				"light0Pos": {
					"type": 35666
				},
				"light0Color": {
					"type": 35666
				},
				"light1Pos": {
					"type": 35666
				},
				"light1Color": {
					"type": 35666
				}				
			},
			"attributes": {
				"a_position": "position",
				"a_normal": "normal",
				"a_color": "color"				
			},
			"uniforms": {
				"u_modelViewMatrix": "modelViewMatrix",
				"u_projectionMatrix": "projectionMatrix",
				"u_normalMatrix": "normalMatrix",
				"u_color": "color",
				"u_roughness": "roughness",
				"u_metallic": "metallic",
				"u_light0Pos": "light0Pos",
				"u_light0Color": "light0Color",
				"u_light1Pos": "light1Pos",
				"u_light1Color": "light1Color"				
			},
			"states": {
				"enable": [
					2929,
					2884
				],
				"functions": {
					"cullFace": [1029]
				}
			}
		}
	},
	"materials": {
		"material_mat24": {
			"technique": "technique_mat24",
			"values": {
				"color": [0.8392157, 0.8392157, 0.8392157, 0.2509804],
				"roughness": 0,
				"metallic": 0,
				"light0Pos": [-0.02, 4.11, -0.54, 0],
				"light0Color": [0.8, 0.8, 0.8, 0],
				"light1Pos": [0.02, -4.11, 0.54, 0],
				"light1Color": [0.64, 0.5647059, 0.5647059, 0]				
			},
			"name": "material_mat24"
		},
		"material_mat8": {
			"technique": "technique_mat8",
			"values": {
				"color": [0.9568627, 0.2627451, 0.2117647, 1],
				"roughness": 0.72,
				"metallic": 0,
				"light0Pos": [-0.02, 4.11, -0.54, 0],
				"light0Color": [0.8, 0.8, 0.8, 0],
				"light1Pos": [0.02, -4.11, 0.54, 0],
				"light1Color": [0.64, 0.5647059, 0.5647059, 0]				
			},
			"name": "material_mat8"
		},
		"material_mat23": {
			"technique": "technique_mat23",
			"values": {
				"color": [0.1019608, 0.1019608, 0.1019608, 1],
				"roughness": 0.72,
				"metallic": 0,
				"light0Pos": [-0.02, 4.11, -0.54, 0],
				"light0Color": [0.8, 0.8, 0.8, 0],
				"light1Pos": [0.02, -4.11, 0.54, 0],
				"light1Color": [0.64, 0.5647059, 0.5647059, 0]				
			},
			"name": "material_mat23"
		}
	},
	"nodes": {
		"node_MeshObject-665295360-PolyGlass24": {
			"name": "node_MeshObject-665295360-PolyGlass24",
			"meshes": [
				"mesh_m0-PolyGlass24_-99720"
			],
			"matrix": [1, 0, 0, 0, 0, 1, 0, 0, 0, 0, 1, 0, 0, 0, 0, 1]
		},
		"node_MeshObject-437632512-PolyPaper8": {
			"name": "node_MeshObject-437632512-PolyPaper8",
			"meshes": [
				"mesh_m1-PolyPaper8_-158232"
			],
			"matrix": [1, 0, 0, 0, 0, 1, 0, 0, 0, 0, 1, 0, 0, 0, 0, 1]
		},
		"node_MeshObject-1475072640-PolyPaper23": {
			"name": "node_MeshObject-1475072640-PolyPaper23",
			"meshes": [
				"mesh_m2-PolyPaper23_-158026"
			],
			"matrix": [1, 0, 0, 0, 0, 1, 0, 0, 0, 0, 1, 0, 0, 0, 0, 1]
		}
	},
	"scene": "defaultScene",
	"scenes": {
		"defaultScene": {
			"nodes": [
				"node_MeshObject-665295360-PolyGlass24",
				"node_MeshObject-437632512-PolyPaper8",
				"node_MeshObject-1475072640-PolyPaper23"
			],
			"extras": {

			}
		}
	}
}